<?xml version="1.0" encoding="UTF-8"?> <svg xmlns="http://www.w3.org/2000/svg" width="162" height="37" viewBox="0 0 162 37" fill="none"><g clip-path="url(#clip0_4827_4937)"><path d="M15.6079 -0.144043C7.21634 -0.144043 0.414307 6.76615 0.414307 15.2911C0.414307 23.816 7.21634 30.7262 15.6079 30.7262C23.9994 30.7262 30.8004 23.816 30.8004 15.2911C30.8004 6.76615 23.9984 -0.144043 15.6079 -0.144043ZM15.6079 24.4047C10.6602 24.4047 6.63684 20.3164 6.63684 15.2911C6.63684 10.2658 10.6602 6.17744 15.6079 6.17744C20.5555 6.17744 24.5779 10.2658 24.5779 15.2911C24.5779 20.3164 20.5545 24.4047 15.6079 24.4047Z" fill="#3E3D4E"></path><path d="M63.5258 15.2911C63.5258 23.816 56.7237 30.7262 48.3332 30.7262V24.4047C53.2799 24.4047 57.3032 20.3164 57.3032 15.2911C57.3032 10.2658 53.2799 6.17744 48.3332 6.17744C43.3865 6.17744 39.3622 10.2658 39.3622 15.2911V36.6628H33.1396V15.2179C33.1786 6.72657 39.966 -0.144043 48.3332 -0.144043C56.7004 -0.144043 63.5258 6.76615 63.5258 15.2911Z" fill="#3E3D4E"></path><path d="M96.2504 15.2911C96.2504 23.816 89.4483 30.7262 81.0578 30.7262V24.4047C86.0045 24.4047 90.0278 20.3164 90.0278 15.2911C90.0278 10.2658 86.0045 6.17744 81.0578 6.17744C76.1111 6.17744 72.0868 10.2658 72.0868 15.2911V36.6628H65.8643V15.2179C65.9032 6.72657 72.6906 -0.144043 81.0578 -0.144043C89.425 -0.144043 96.2504 6.76615 96.2504 15.2911Z" fill="#3E3D4E"></path><path d="M113.781 14.1043H122.676C122.103 9.63796 118.332 6.1789 113.781 6.1789C108.835 6.1789 104.81 10.2662 104.81 15.2916C104.81 20.3169 108.835 24.4052 113.781 24.4052H128.975V30.7267H113.709C105.351 30.6871 98.5879 23.7918 98.5879 15.2916C98.5879 6.79136 105.39 -0.142578 113.781 -0.142578C122.173 -0.142578 128.975 6.76761 128.975 15.2916V18.8535H113.781V14.1043Z" fill="#3E3D4E"></path><path d="M146.507 15.291C146.507 23.816 153.309 30.7261 161.699 30.7261V24.4047C156.752 24.4047 152.729 20.3163 152.729 15.291H146.507Z" fill="#4D4AEC"></path><path d="M161.7 15.2911H155.477C155.476 10.2658 151.453 6.17744 146.507 6.17744C141.56 6.17744 137.536 10.2658 137.536 15.2921V30.7272H131.314V15.2189C131.353 6.72657 138.14 -0.143054 146.506 -0.144043C154.898 -0.144043 161.699 6.76615 161.7 15.2911Z" fill="#3E3D4E"></path></g><defs><clipPath id="clip0_4827_4937"><rect width="161.285" height="36.8069" fill="white" transform="translate(0.415039 -0.144043)"></rect></clipPath></defs></svg> 